<svg width="2880" height="1800" viewBox="0 0 2880 1800" fill="none" xmlns="http://www.w3.org/2000/svg">
<rect x="2880" y="1800" width="2880" height="1800" transform="rotate(-180 2880 1800)" fill="#86D79F"/>
<path d="M92.4054 1736.5C80.8018 1736.5 75 1726.03 75 1705.1V93.8953C75 72.9651 80.8018 62.5 92.4054 62.5H347.22C358.824 62.5 364.625 72.9651 364.625 93.8953V879.404H499.691C499.691 879.404 499.691 1244.64 499.691 1265.57V1705.1C499.691 1726.03 493.889 1736.5 482.286 1736.5H92.4054Z" fill="#30513A"/>
<path d="M570.788 1734C557.327 1734 552.222 1722.7 555.471 1700.09L743.449 562.326H508.128V91.3953C508.128 70.4651 513.93 60 525.534 60H945.351C954.634 60 961.596 66.2791 966.237 78.8372L1060.23 312.419C1065.33 325.814 1066.96 340.047 1065.1 355.116L877.5 1700.09C872.5 1728 846 1734 833.26 1734H570.788Z" fill="#30513A"/>
<rect x="2880" y="1800" width="2880" height="1800" transform="rotate(-180 2880 1800)" fill="#86D79F"/>
<path d="M92.4054 1736.5C80.8018 1736.5 75 1726.03 75 1705.1V93.8953C75 72.9651 80.8018 62.5 92.4054 62.5H347.22C358.824 62.5 364.625 72.9651 364.625 93.8953V879.404H499.691C499.691 879.404 499.691 1244.64 499.691 1265.57V1705.1C499.691 1726.03 493.889 1736.5 482.286 1736.5H92.4054Z" fill="#30513A"/>
<path d="M570.788 1734C557.327 1734 552.222 1722.7 555.471 1700.09L743.449 562.326H508.128V91.3953C508.128 70.4651 513.93 60 525.534 60H945.351C954.634 60 961.596 66.2791 966.237 78.8372L1060.23 312.419C1065.33 325.814 1066.96 340.047 1065.1 355.116L877.5 1700.09C872.5 1728 846 1734 833.26 1734H570.788Z" fill="#30513A"/>
<mask id="path-5-inside-1_636_30" fill="white">
<path fill-rule="evenodd" clip-rule="evenodd" d="M928.527 1739H2768C2795.61 1739 2818 1716.61 2818 1689V1587C2818 1559.39 2795.61 1537 2768 1537H957.165L928.527 1739ZM963.403 1493H2768C2795.61 1493 2818 1470.61 2818 1443V1342C2818 1314.39 2795.61 1292 2768 1292H991.898L963.403 1493ZM998.278 1247H2768C2795.61 1247 2818 1224.61 2818 1197V1096C2818 1068.39 2795.61 1046 2768 1046H1026.77L998.278 1247ZM1033.15 1001H2768C2795.61 1001 2818 978.614 2818 951V850C2818 822.386 2795.61 800 2768 800H1061.65L1033.15 1001ZM1068.03 755H2768C2795.61 755 2818 732.614 2818 705V604C2818 576.386 2795.61 554 2768 554H1096.52L1068.03 755ZM1111.1 264L1028.49 62H2768C2795.61 62 2818 84.3858 2818 112V214C2818 241.614 2795.61 264 2768 264H1111.1ZM1102.9 509L1127.45 335.879C1128.65 326.259 1128.47 316.966 1126.92 308H2768C2795.61 308 2818 330.386 2818 358V459C2818 486.614 2795.61 509 2768 509H1102.9ZM785.652 556.4L756.777 728.351C753.088 721.381 751 713.435 751 705V604C751 581.74 765.546 562.878 785.652 556.4Z"/>
</mask>
<path fill-rule="evenodd" clip-rule="evenodd" d="M928.527 1739H2768C2795.61 1739 2818 1716.61 2818 1689V1587C2818 1559.39 2795.61 1537 2768 1537H957.165L928.527 1739ZM963.403 1493H2768C2795.61 1493 2818 1470.61 2818 1443V1342C2818 1314.39 2795.61 1292 2768 1292H991.898L963.403 1493ZM998.278 1247H2768C2795.61 1247 2818 1224.61 2818 1197V1096C2818 1068.39 2795.61 1046 2768 1046H1026.77L998.278 1247ZM1033.15 1001H2768C2795.61 1001 2818 978.614 2818 951V850C2818 822.386 2795.61 800 2768 800H1061.65L1033.15 1001ZM1068.03 755H2768C2795.61 755 2818 732.614 2818 705V604C2818 576.386 2795.61 554 2768 554H1096.52L1068.03 755ZM1111.1 264L1028.49 62H2768C2795.61 62 2818 84.3858 2818 112V214C2818 241.614 2795.61 264 2768 264H1111.1ZM1102.9 509L1127.45 335.879C1128.65 326.259 1128.47 316.966 1126.92 308H2768C2795.61 308 2818 330.386 2818 358V459C2818 486.614 2795.61 509 2768 509H1102.9ZM785.652 556.4L756.777 728.351C753.088 721.381 751 713.435 751 705V604C751 581.74 765.546 562.878 785.652 556.4Z" fill="url(#paint0_linear_636_30)"/>
<path d="M928.527 1739L908.725 1736.19L905.492 1759H928.527V1739ZM957.165 1537V1517H939.8L937.363 1534.19L957.165 1537ZM963.403 1493L943.601 1490.19L940.367 1513H963.403V1493ZM991.898 1292V1272H974.534L972.096 1289.19L991.898 1292ZM998.278 1247L978.476 1244.19L975.243 1267H998.278V1247ZM1026.77 1046V1026H1009.41L1006.97 1043.19L1026.77 1046ZM1033.15 1001L1013.35 998.193L1010.12 1021H1033.15V1001ZM1061.65 800V780H1044.28L1041.85 797.193L1061.65 800ZM1068.03 755L1048.23 752.193L1044.99 775H1068.03V755ZM1096.52 554V534H1079.16L1076.72 551.193L1096.52 554ZM1028.49 62V42H998.699L1009.97 69.5709L1028.49 62ZM1111.1 264L1092.59 271.571L1097.67 284H1111.1V264ZM1127.45 335.879L1147.25 338.686L1147.27 338.525L1147.29 338.364L1127.45 335.879ZM1102.9 509L1083.1 506.193L1079.87 529H1102.9V509ZM1126.92 308V288H1103.14L1107.21 311.427L1126.92 308ZM756.777 728.351L739.099 737.705L766.72 789.906L776.5 731.664L756.777 728.351ZM785.652 556.4L805.376 559.712L810.822 527.278L779.518 537.363L785.652 556.4ZM928.527 1759H2768V1719H928.527V1759ZM2768 1759C2806.66 1759 2838 1727.66 2838 1689H2798C2798 1705.57 2784.57 1719 2768 1719V1759ZM2838 1689V1587H2798V1689H2838ZM2838 1587C2838 1548.34 2806.66 1517 2768 1517V1557C2784.57 1557 2798 1570.43 2798 1587H2838ZM2768 1517H957.165V1557H2768V1517ZM937.363 1534.19L908.725 1736.19L948.329 1741.81L976.967 1539.81L937.363 1534.19ZM963.403 1513H2768V1473H963.403V1513ZM2768 1513C2806.66 1513 2838 1481.66 2838 1443H2798C2798 1459.57 2784.57 1473 2768 1473V1513ZM2838 1443V1342H2798V1443H2838ZM2838 1342C2838 1303.34 2806.66 1272 2768 1272V1312C2784.57 1312 2798 1325.43 2798 1342H2838ZM2768 1272H991.898V1312H2768V1272ZM972.096 1289.19L943.601 1490.19L983.205 1495.81L1011.7 1294.81L972.096 1289.19ZM2768 1227H998.278V1267H2768V1227ZM2798 1197C2798 1213.57 2784.57 1227 2768 1227V1267C2806.66 1267 2838 1235.66 2838 1197H2798ZM2798 1096V1197H2838V1096H2798ZM2768 1066C2784.57 1066 2798 1079.43 2798 1096H2838C2838 1057.34 2806.66 1026 2768 1026V1066ZM1026.77 1066H2768V1026H1026.77V1066ZM1006.97 1043.19L978.476 1244.19L1018.08 1249.81L1046.58 1048.81L1006.97 1043.19ZM1033.15 1021H2768V981H1033.15V1021ZM2768 1021C2806.66 1021 2838 989.66 2838 951H2798C2798 967.568 2784.57 981 2768 981V1021ZM2838 951V850H2798V951H2838ZM2838 850C2838 811.34 2806.66 780 2768 780V820C2784.57 820 2798 833.432 2798 850H2838ZM2768 780H1061.65V820H2768V780ZM1041.85 797.193L1013.35 998.193L1052.96 1003.81L1081.45 802.807L1041.85 797.193ZM2768 735H1068.03V775H2768V735ZM2798 705C2798 721.568 2784.57 735 2768 735V775C2806.66 775 2838 743.66 2838 705H2798ZM2798 604V705H2838V604H2798ZM2768 574C2784.57 574 2798 587.432 2798 604H2838C2838 565.34 2806.66 534 2768 534V574ZM1096.52 574H2768V534H1096.52V574ZM1076.72 551.193L1048.23 752.193L1087.83 757.807L1116.33 556.807L1076.72 551.193ZM1009.97 69.5709L1092.59 271.571L1129.61 256.429L1047 54.4291L1009.97 69.5709ZM1028.49 82H2768V42H1028.49V82ZM2768 82C2784.57 82 2798 95.4315 2798 112H2838C2838 73.34 2806.66 42 2768 42V82ZM2798 112V214H2838V112H2798ZM2798 214C2798 230.568 2784.57 244 2768 244V284C2806.66 284 2838 252.66 2838 214H2798ZM2768 244H1111.1V284H2768V244ZM1107.65 333.071L1083.1 506.193L1122.71 511.807L1147.25 338.686L1107.65 333.071ZM1107.21 311.427C1108.41 318.317 1108.58 325.612 1107.6 333.394L1147.29 338.364C1148.73 326.905 1148.54 315.615 1146.62 304.573L1107.21 311.427ZM2768 288H1126.92V328H2768V288ZM2838 358C2838 319.34 2806.66 288 2768 288V328C2784.57 328 2798 341.432 2798 358H2838ZM2838 459V358H2798V459H2838ZM2768 529C2806.66 529 2838 497.66 2838 459H2798C2798 475.568 2784.57 489 2768 489V529ZM1102.9 529H2768V489H1102.9V529ZM776.5 731.664L805.376 559.712L765.928 553.088L737.053 725.039L776.5 731.664ZM774.454 718.998C772.254 714.84 771 710.096 771 705H731C731 716.773 733.923 727.923 739.099 737.705L774.454 718.998ZM771 705V604H731V705H771ZM771 604C771 590.675 779.702 579.329 791.785 575.436L779.518 537.363C751.391 546.426 731 572.806 731 604H771Z" fill="#30513A" mask="url(#path-5-inside-1_636_30)"/>
<defs>
<linearGradient id="paint0_linear_636_30" x1="1784.5" y1="62" x2="1784.5" y2="1739" gradientUnits="userSpaceOnUse">
<stop stop-color="#30513A"/>
<stop offset="1" stop-color="#86D79F"/>
</linearGradient>
</defs>
</svg>
