<svg width="2880" height="1800" viewBox="0 0 2880 1800" fill="none" xmlns="http://www.w3.org/2000/svg">
<rect x="2880" y="1800" width="2880" height="1800" transform="rotate(-180 2880 1800)" fill="#2F4E2B"/>
<path d="M91.4054 1743C79.8018 1743 74 1737.2 74 1725.6V832.404C74 820.801 79.8018 815 91.4054 815H346.22C357.824 815 363.625 820.801 363.625 832.404V1267.86H498.691C498.691 1267.86 498.691 1470.33 498.691 1481.93V1725.6C498.691 1737.2 492.889 1743 481.286 1743H91.4054Z" fill="#88B382"/>
<path d="M543.945 1743C530.485 1743 525.379 1736.73 528.628 1724.2L716.606 1093.47H481.286V832.404C481.286 820.801 487.087 815 498.691 815H918.508C927.791 815 934.753 818.481 939.395 825.443L1033.38 954.931C1038.49 962.357 1040.11 970.247 1038.26 978.601L824.519 1727.68C822.199 1737.89 816.165 1743 806.418 1743H543.945Z" fill="#88B382"/>
</svg>
