<svg width="2880" height="1800" viewBox="0 0 2880 1800" fill="none" xmlns="http://www.w3.org/2000/svg">
<rect x="2880" y="1800" width="2880" height="1800" transform="rotate(-180 2880 1800)" fill="#364534"/>
<path d="M101.405 1737C89.8018 1737 84 1726.53 84 1705.6V94.3953C84 73.4651 89.8018 63 101.405 63H356.22C367.824 63 373.625 73.4651 373.625 94.3953V879.904H508.691C508.691 879.904 508.691 1245.14 508.691 1266.07V1705.6C508.691 1726.53 502.889 1737 491.286 1737H101.405Z" fill="#90CE88"/>
<path d="M601.288 1737C587.827 1737 582.722 1725.7 585.971 1703.09L773.949 565.326H538.628V94.3953C538.628 73.4651 544.43 63 556.034 63H975.851C985.134 63 992.096 69.2791 996.738 81.8372L1090.73 315.419C1095.83 328.814 1097.46 343.047 1095.6 358.116L881.862 1709.37C879.541 1727.79 873.508 1737 863.761 1737H601.288Z" fill="#90CE88"/>
</svg>
