<svg width="2880" height="1800" viewBox="0 0 2880 1800" fill="none" xmlns="http://www.w3.org/2000/svg">
<rect x="2880" y="1800" width="2880" height="1800" transform="rotate(-180 2880 1800)" fill="#2B4131"/>
<path d="M92.4054 1736.5C80.8018 1736.5 75 1726.03 75 1705.1V93.8953C75 72.9651 80.8018 62.5 92.4054 62.5H347.22C358.824 62.5 364.625 72.9651 364.625 93.8953V879.404H499.691C499.691 879.404 499.691 1244.64 499.691 1265.57V1705.1C499.691 1726.03 493.889 1736.5 482.286 1736.5H92.4054Z" fill="#8CFFAF"/>
<path d="M570.788 1734C557.327 1734 552.222 1722.7 555.471 1700.09L743.449 562.326H508.128V91.3953C508.128 70.4651 513.93 60 525.534 60H945.351C954.634 60 961.596 66.2791 966.237 78.8372L1060.23 312.419C1065.33 325.814 1066.96 340.047 1065.1 355.116L877.5 1700.09C872.5 1728 846 1734 833.26 1734H570.788Z" fill="#8CFFAF"/>
<mask id="path-3-inside-1_636_79" fill="white">
<path fill-rule="evenodd" clip-rule="evenodd" d="M928.527 1739H2818V1587V1443V1342V1197V1096V951V850V705V604V459V358V112C2818 84.3858 2795.61 62 2768 62H1028.49L1108.85 258.5H1464.72C1478.9 258.5 1492.42 264.524 1501.9 275.072L1531.5 308H1126.92C1128.47 316.966 1128.65 326.259 1127.45 335.879L1102.9 509H1712.2L1752.66 554H1096.52L1068.03 755H1933.36L1973.82 800H1061.65L1033.15 1001H2154.52L2194.98 1046H1026.77L998.278 1247H2375.68L2416.14 1292H991.899L963.403 1493H2596.84L2636.4 1537H957.165L928.527 1739Z"/>
</mask>
<path fill-rule="evenodd" clip-rule="evenodd" d="M928.527 1739H2818V1587V1443V1342V1197V1096V951V850V705V604V459V358V112C2818 84.3858 2795.61 62 2768 62H1028.49L1108.85 258.5H1464.72C1478.9 258.5 1492.42 264.524 1501.9 275.072L1531.5 308H1126.92C1128.47 316.966 1128.65 326.259 1127.45 335.879L1102.9 509H1712.2L1752.66 554H1096.52L1068.03 755H1933.36L1973.82 800H1061.65L1033.15 1001H2154.52L2194.98 1046H1026.77L998.278 1247H2375.68L2416.14 1292H991.899L963.403 1493H2596.84L2636.4 1537H957.165L928.527 1739Z" fill="url(#paint0_linear_636_79)"/>
<path d="M2818 1739V1749H2828V1739H2818ZM928.527 1739L918.626 1737.6L917.01 1749H928.527V1739ZM1028.49 62V52H1013.59L1019.23 65.7855L1028.49 62ZM1108.85 258.5L1099.6 262.285L1102.14 268.5H1108.85V258.5ZM1501.9 275.072L1509.34 268.386L1509.34 268.386L1501.9 275.072ZM1531.5 308V318H1553.94L1538.94 301.314L1531.5 308ZM1126.92 308V298H1115.03L1117.06 309.714L1126.92 308ZM1127.45 335.879L1137.35 337.282L1137.36 337.202L1137.37 337.121L1127.45 335.879ZM1102.9 509L1093 507.596L1091.39 519H1102.9V509ZM1712.2 509L1719.64 502.314L1716.66 499H1712.2V509ZM1752.66 554V564H1775.1L1760.1 547.314L1752.66 554ZM1096.52 554V544H1087.84L1086.62 552.596L1096.52 554ZM1068.03 755L1058.13 753.596L1056.51 765H1068.03V755ZM1933.36 755L1940.8 748.314L1937.82 745H1933.36V755ZM1973.82 800V810H1996.26L1981.26 793.314L1973.82 800ZM1061.65 800V790H1052.97L1051.75 798.596L1061.65 800ZM1033.15 1001L1023.25 999.596L1021.64 1011H1033.15V1001ZM2154.52 1001L2161.96 994.314L2158.98 991H2154.52V1001ZM2194.98 1046V1056H2217.42L2202.42 1039.31L2194.98 1046ZM1026.77 1046V1036H1018.09L1016.87 1044.6L1026.77 1046ZM998.278 1247L988.377 1245.6L986.76 1257H998.278V1247ZM2375.68 1247L2383.12 1240.31L2380.14 1237H2375.68V1247ZM2416.14 1292V1302H2438.58L2423.57 1285.31L2416.14 1292ZM991.899 1292V1282H983.216L981.998 1290.6L991.899 1292ZM963.403 1493L953.502 1491.6L951.885 1503H963.403V1493ZM2596.84 1493L2604.28 1486.31L2601.3 1483H2596.84V1493ZM2636.4 1537V1547H2658.84L2643.83 1530.31L2636.4 1537ZM957.165 1537V1527H948.483L947.264 1535.6L957.165 1537ZM2818 1729H928.527V1749H2818V1729ZM2808 1587V1739H2828V1587H2808ZM2808 1443V1587H2828V1443H2808ZM2808 1342V1443H2828V1342H2808ZM2808 1197V1342H2828V1197H2808ZM2808 1096V1197H2828V1096H2808ZM2808 951V1096H2828V951H2808ZM2808 850V951H2828V850H2808ZM2808 705V850H2828V705H2808ZM2808 604V705H2828V604H2808ZM2808 459V604H2828V459H2808ZM2808 358V459H2828V358H2808ZM2808 112V358H2828V112H2808ZM2768 72C2790.09 72 2808 89.9086 2808 112H2828C2828 78.8629 2801.14 52 2768 52V72ZM1028.49 72H2768V52H1028.49V72ZM1019.23 65.7855L1099.6 262.285L1118.11 254.715L1037.74 58.2145L1019.23 65.7855ZM1464.72 248.5H1108.85V268.5H1464.72V248.5ZM1509.34 268.386C1497.96 255.729 1481.74 248.5 1464.72 248.5V268.5C1476.06 268.5 1486.88 273.319 1494.46 281.757L1509.34 268.386ZM1538.94 301.314L1509.34 268.386L1494.46 281.757L1524.07 314.686L1538.94 301.314ZM1126.92 318H1531.5V298H1126.92V318ZM1117.06 309.714C1118.44 317.641 1118.61 325.935 1117.53 334.636L1137.37 337.121C1138.69 326.582 1138.51 316.29 1136.77 306.286L1117.06 309.714ZM1117.55 334.475L1093 507.596L1112.81 510.404L1137.35 337.282L1117.55 334.475ZM1712.2 499H1102.9V519H1712.2V499ZM1760.1 547.314L1719.64 502.314L1704.77 515.686L1745.22 560.686L1760.1 547.314ZM1096.52 564H1752.66V544H1096.52V564ZM1086.62 552.596L1058.13 753.596L1077.93 756.404L1106.43 555.404L1086.62 552.596ZM1933.36 745H1068.03V765H1933.36V745ZM1981.26 793.314L1940.8 748.314L1925.93 761.686L1966.38 806.686L1981.26 793.314ZM1061.65 810H1973.82V790H1061.65V810ZM1051.75 798.596L1023.25 999.596L1043.05 1002.4L1071.55 801.404L1051.75 798.596ZM2154.52 991H1033.15V1011H2154.52V991ZM2202.42 1039.31L2161.96 994.314L2147.09 1007.69L2187.54 1052.69L2202.42 1039.31ZM1026.77 1056H2194.98V1036H1026.77V1056ZM1016.87 1044.6L988.377 1245.6L1008.18 1248.4L1036.67 1047.4L1016.87 1044.6ZM2375.68 1237H998.278V1257H2375.68V1237ZM2423.57 1285.31L2383.12 1240.31L2368.25 1253.69L2408.7 1298.69L2423.57 1285.31ZM991.899 1302H2416.14V1282H991.899V1302ZM981.998 1290.6L953.502 1491.6L973.304 1494.4L1001.8 1293.4L981.998 1290.6ZM2596.84 1483H963.403V1503H2596.84V1483ZM2643.83 1530.31L2604.28 1486.31L2589.4 1499.69L2628.96 1543.69L2643.83 1530.31ZM957.165 1547H2636.4V1527H957.165V1547ZM947.264 1535.6L918.626 1737.6L938.428 1740.4L967.066 1538.4L947.264 1535.6Z" fill="#8CFFAF" mask="url(#path-3-inside-1_636_79)"/>
<defs>
<linearGradient id="paint0_linear_636_79" x1="1873.26" y1="62" x2="1873.26" y2="1739" gradientUnits="userSpaceOnUse">
<stop stop-color="#8CFFAF"/>
<stop offset="1" stop-color="#2B4131"/>
</linearGradient>
</defs>
</svg>
