<svg width="2880" height="1800" viewBox="0 0 2880 1800" fill="none" xmlns="http://www.w3.org/2000/svg">
<rect x="2880" y="1800" width="2880" height="1800" transform="rotate(-180 2880 1800)" fill="#364534"/>
<path d="M512.691 879.909C512.691 879.906 512.691 879.904 508.691 879.904H512.691V875.904H508.691H377.625V94.3953C377.625 83.6917 376.165 75.028 372.772 68.9094C371.043 65.7896 368.772 63.2636 365.896 61.5341C363.013 59.8008 359.741 59 356.22 59H101.405C97.8839 59 94.6122 59.8008 91.7294 61.5341C88.8529 63.2636 86.5826 65.7896 84.853 68.9094C81.4608 75.028 80 83.6917 80 94.3953V1705.6C80 1716.31 81.4608 1724.97 84.853 1731.09C86.5826 1734.21 88.8529 1736.74 91.7294 1738.47C94.6121 1740.2 97.8839 1741 101.405 1741H491.286C494.807 1741 498.079 1740.2 500.962 1738.47C503.838 1736.74 506.108 1734.21 507.838 1731.09C511.23 1724.97 512.691 1716.31 512.691 1705.6V1266.07V1265.94V1265.81V1265.67V1265.52V1265.36V1265.19V1265.02V1264.84V1264.65V1264.45V1264.25V1264.04V1263.82V1263.59V1263.36V1263.12V1262.87V1262.62V1262.35V1262.08V1261.81V1261.52V1261.23V1260.93V1260.62V1260.31V1259.99V1259.66V1259.33V1258.99V1258.64V1258.28V1257.92V1257.55V1257.18V1256.79V1256.41V1256.01V1255.61V1255.2V1254.78V1254.36V1253.93V1253.5V1253.05V1252.61V1252.15V1251.69V1251.22V1250.75V1250.27V1249.78V1249.29V1248.79V1248.28V1247.77V1247.26V1246.73V1246.2V1245.67V1245.13V1244.58V1244.03V1243.47V1242.9V1242.33V1241.76V1241.17V1240.58V1239.99V1239.39V1238.79V1238.18V1237.56V1236.94V1236.31V1235.68V1235.04V1234.4V1233.75V1233.09V1232.43V1231.77V1231.1V1230.42V1229.74V1229.06V1228.37V1227.67V1226.97V1226.26V1225.55V1224.84V1224.12V1223.39V1222.66V1221.92V1221.18V1220.44V1219.69V1218.94V1218.18V1217.41V1216.64V1215.87V1215.09V1214.31V1213.53V1212.73V1211.94V1211.14V1210.33V1209.53V1208.71V1207.9V1207.08V1206.25V1205.42V1204.59V1203.75V1202.91V1202.06V1201.21V1200.36V1199.5V1198.64V1197.77V1196.9V1196.03V1195.15V1194.27V1193.39V1192.5V1191.6V1190.71V1189.81V1188.91V1188V1187.09V1186.18V1185.26V1184.34V1183.42V1182.49V1181.56V1180.63V1179.69V1178.75V1177.81V1176.86V1175.91V1174.96V1174V1173.04V1172.08V1171.12V1170.15V1169.18V1168.21V1167.23V1166.25V1165.27V1164.29V1163.3V1162.31V1161.32V1160.32V1159.32V1158.32V1157.32V1156.32V1155.31V1154.3V1153.28V1152.27V1151.25V1150.23V1149.21V1148.19V1147.16V1146.13V1145.1V1144.07V1143.04V1142V1140.96V1139.92V1138.88V1137.83V1136.79V1135.74V1134.69V1133.63V1132.58V1131.53V1130.47V1129.41V1128.35V1127.29V1126.22V1125.16V1124.09V1123.02V1121.95V1120.88V1119.81V1118.74V1117.66V1116.59V1115.51V1114.43V1113.35V1112.27V1111.19V1110.1V1109.02V1107.93V1106.85V1105.76V1104.67V1103.58V1102.49V1101.4V1100.31V1099.22V1098.12V1097.03V1095.94V1094.84V1093.74V1092.65V1091.55V1090.45V1089.35V1088.26V1087.16V1086.06V1084.96V1083.86V1082.76V1081.66V1080.56V1079.46V1078.35V1077.25V1076.15V1075.05V1073.95V1072.85V1071.75V1070.64V1069.54V1068.44V1067.34V1066.24V1065.14V1064.04V1062.94V1061.84V1060.74V1059.64V1058.54V1057.44V1056.34V1055.25V1054.15V1053.05V1051.96V1050.86V1049.77V1048.67V1047.58V1046.49V1045.4V1044.3V1043.21V1042.13V1041.04V1039.95V1038.86V1037.78V1036.69V1035.61V1034.53V1033.45V1032.37V1031.29V1030.21V1029.14V1028.06V1026.99V1025.92V1024.84V1023.78V1022.71V1021.64V1020.58V1019.51V1018.45V1017.39V1016.33V1015.27V1014.22V1013.17V1012.11V1011.06V1010.02V1008.97V1007.93V1006.88V1005.84V1004.8V1003.77V1002.73V1001.7V1000.67V999.642V998.616V997.592V996.571V995.552V994.535V993.52V992.508V991.498V990.49V989.486V988.483V987.483V986.486V985.491V984.499V983.509V982.522V981.538V980.557V979.578V978.602V977.629V976.659V975.692V974.728V973.766V972.808V971.853V970.901V969.952V969.006V968.063V967.123V966.187V965.253V964.324V963.397V962.474V961.554V960.638V959.725V958.815V957.909V957.007V956.108V955.212V954.321V953.433V952.548V951.668V950.791V949.918V949.049V948.184V947.322V946.465V945.611V944.761V943.916V943.074V942.237V941.404V940.574V939.749V938.928V938.112V937.299V936.491V935.688V934.888V934.094V933.303V932.517V931.735V930.958V930.186V929.418V928.655V927.896V927.142V926.393V925.648V924.909V924.174V923.444V922.718V921.998V921.283V920.572V919.867V919.166V918.471V917.781V917.096V916.416V915.741V915.072V914.407V913.748V913.095V912.446V911.803V911.166V910.534V909.907V909.286V908.67V908.06V907.456V906.857V906.264V905.676V905.095V904.519V903.948V903.384V902.826V902.273V901.726V901.186V900.651V900.122V899.599V899.083V898.572V898.068V897.57V897.078V896.592V896.112V895.639V895.172V894.712V894.258V893.81V893.369V892.934V892.506V892.084V891.669V891.26V890.858V890.463V890.075V889.693V889.318V888.95V888.589V888.234V887.887V887.546V887.213V886.886V886.566V886.254V885.948V885.65V885.359V885.075V884.798V884.529V884.266V884.011V883.764V883.524V883.291V883.065V882.847V882.637V882.434V882.239V882.051V881.871V881.699V881.534V881.377V881.228V881.086V880.953V880.827V880.709V880.599V880.497V880.403V880.317V880.239V880.169V880.107V880.054V880.008V879.971V879.942V879.921V879.909ZM582.024 1702.44L582.018 1702.48L582.012 1702.52C580.357 1714.04 580.684 1723.45 583.718 1730.17C585.278 1733.62 587.576 1736.41 590.679 1738.3C593.76 1740.17 597.363 1741 601.288 1741H863.761C870.176 1741 875.298 1737.85 878.942 1732.29C882.439 1726.95 884.63 1719.36 885.823 1709.94L1099.55 358.741L1099.56 358.673L1099.57 358.605C1101.5 342.928 1099.82 328.035 1094.46 313.994L1094.45 313.96L1094.44 313.925L1000.47 80.3957C998.017 73.7782 994.825 68.447 990.714 64.7389C986.506 60.9439 981.493 59 975.851 59H556.034C552.512 59 549.24 59.8008 546.358 61.5341C543.481 63.2636 541.211 65.7896 539.481 68.9094C536.089 75.028 534.628 83.6917 534.628 94.3953V565.326V569.326H538.628H769.234L582.024 1702.44Z" fill="#557251" stroke="#8AAB86" stroke-width="8"/>
</svg>
